<svg id="Layer_1" data-name="Layer 1" xmlns="http://www.w3.org/2000/svg" viewBox="0 0 344.43 327.14"><defs><style>.cls-1{fill:#fff;}.cls-2{font-size:33px;fill:#231f20;font-family:Rubik-Regular, Rubik;}.cls-3{letter-spacing:-0.02em;}.cls-4{letter-spacing:0em;}</style></defs><title>trilogy-logo</title><path class="cls-1" d="M284.69,224.53l-21.23-34.21a1.5,1.5,0,0,0-.94-.69,1.54,1.54,0,0,0-1.15.18,1.5,1.5,0,0,0-.69.94,1.54,1.54,0,0,0,.19,1.16l19.81,31.91-7.83.07a1.52,1.52,0,0,0-1.51,1.53,1.53,1.53,0,0,0,1.53,1.51l10.53-.09a1.52,1.52,0,0,0,1.29-2.31Z"/><path class="cls-1" d="M132.11,122.51a1.61,1.61,0,0,0,.77.2,1.5,1.5,0,0,0,1.31-.75l33.62-57.31,4.05,7.17a1.51,1.51,0,0,0,2.07.58,1.54,1.54,0,0,0,.72-.92,1.48,1.48,0,0,0-.15-1.16l-5.35-9.47a1.52,1.52,0,0,0-2.63,0l-35,59.59a1.53,1.53,0,0,0,.54,2.09Z"/><path class="cls-1" d="M160.22,241.67l-77.73,0,4.93-7.76a1.33,1.33,0,0,0,.18-1A1.36,1.36,0,0,0,87,232a1.37,1.37,0,0,0-1.89.42l-6.27,9.87a1.37,1.37,0,0,0,1.16,2.1l80.22,0a1.37,1.37,0,0,0,0-2.74Z"/><path class="cls-1" d="M196.14,152.22a10.38,10.38,0,0,1,3.64-2.55,12,12,0,0,1,1.84-.58l.95-.21V146l-1.47.32a14.22,14.22,0,0,0-2.5.78h0a13.37,13.37,0,0,0-4.64,3.26,14.86,14.86,0,0,0-3,5.08,21.14,21.14,0,0,0,0,13.16,14.67,14.67,0,0,0,3,5.06,13.22,13.22,0,0,0,4.65,3.24,14.22,14.22,0,0,0,2.5.78l1.46.31v-2.91l-.94-.21a11.12,11.12,0,0,1-1.85-.58,10.36,10.36,0,0,1-3.64-2.54,12,12,0,0,1-2.43-4.11,18.25,18.25,0,0,1,0-11.26A12.37,12.37,0,0,1,196.14,152.22Z"/><path class="cls-1" d="M207.92,146.29l-1.47-.32v2.91l1,.21a12.44,12.44,0,0,1,1.85.58,10.13,10.13,0,0,1,3.63,2.55,11.85,11.85,0,0,1,2.4,4.12,18.72,18.72,0,0,1,0,11.28,12.15,12.15,0,0,1-2.39,4.1,10.21,10.21,0,0,1-3.64,2.53,11.4,11.4,0,0,1-1.85.59l-1,.21V178l1.47-.31a13.74,13.74,0,0,0,2.48-.77,13.3,13.3,0,0,0,4.67-3.24,14.65,14.65,0,0,0,3-5.06,21,21,0,0,0,0-13.18,14.68,14.68,0,0,0-3-5.08,13.2,13.2,0,0,0-4.67-3.25A13.74,13.74,0,0,0,207.92,146.29Z"/><path class="cls-1" d="M143.83,138.19l32.88-55.27,32.88,55.27h3.53L178,79.17a1.49,1.49,0,0,0-1.13-.73l-.17-.28-.17.28a1.51,1.51,0,0,0-1.14.73l-35.11,59Z"/><path class="cls-1" d="M264.65,224.79l-22.72-38.18H238.4l22.26,37.44H92.75L115,186.61h-3.54L88.77,224.79a1.52,1.52,0,0,0-.1,1.36l-.2.33h.39a1.51,1.51,0,0,0,1.22.61H263.34a1.51,1.51,0,0,0,1.21-.61h.39l-.2-.33A1.55,1.55,0,0,0,264.65,224.79Z"/><path class="cls-1" d="M86.23,176.2a1.21,1.21,0,0,0,1.21,1.21H88a1.21,1.21,0,0,0,1.21-1.21V146.73A1.22,1.22,0,0,0,88,145.51H76.29a1.22,1.22,0,0,0-1.22,1.22v.46a1.22,1.22,0,0,0,1.22,1.22h9.94Z"/><path class="cls-1" d="M105.79,162.59h3.3l.61,0a.89.89,0,0,1,.26.07,1.65,1.65,0,0,1,.22.23l11,13.24a1.82,1.82,0,0,0,.82.58,2.11,2.11,0,0,0,.64.09H123a1.22,1.22,0,0,0,.93-2l-10.5-12.49a13.7,13.7,0,0,0,1.62-.41,10.49,10.49,0,0,0,3.4-1.79,8.21,8.21,0,0,0,2.3-2.87,8.6,8.6,0,0,0,.81-3.76,7.59,7.59,0,0,0-3-6.56c-1.85-1.34-4.47-2-7.79-2h-5a1.21,1.21,0,0,0-1.22,1.21v.43a1.21,1.21,0,0,0,1.22,1.21h5a10.31,10.31,0,0,1,6,1.45,4.86,4.86,0,0,1,1.83,4.28,6,6,0,0,1-.54,2.6,5.17,5.17,0,0,1-1.55,1.9,7.58,7.58,0,0,1-2.56,1.27,12.54,12.54,0,0,1-3.56.46h-4.65a1.22,1.22,0,0,0-1.22,1.22v.42A1.22,1.22,0,0,0,105.79,162.59Z"/><rect class="cls-1" x="136.1" y="145.51" width="2.94" height="31.9" rx="1.22"/><path class="cls-1" d="M160.32,145.51h-.5a1.22,1.22,0,0,0-1.22,1.22V176.2a1.21,1.21,0,0,0,1.22,1.21h12.5a1.21,1.21,0,0,0,1.21-1.21v-.47a1.21,1.21,0,0,0-1.21-1.21H161.54V146.73A1.22,1.22,0,0,0,160.32,145.51Z"/><path class="cls-1" d="M235.6,148.11c.55-.05,1.12-.08,1.69-.08a14.84,14.84,0,0,1,4,.45,12.82,12.82,0,0,1,2.6,1,8,8,0,0,1,1.42.93,2.32,2.32,0,0,0,1.53.81,1.45,1.45,0,0,0,1.14-.57.71.71,0,0,0,.1-.14l.06-.1a1.23,1.23,0,0,0-.24-1.53,15.05,15.05,0,0,0-2.19-1.64,13.26,13.26,0,0,0-2.43-1.16,13.86,13.86,0,0,0-2.77-.68,23.36,23.36,0,0,0-5.1-.13,1.22,1.22,0,0,0-1.1,1.21v.43a1.23,1.23,0,0,0,.39.9A1.24,1.24,0,0,0,235.6,148.11Z"/><path class="cls-1" d="M235.39,177.7c.47,0,1,.05,1.43.05a23.75,23.75,0,0,0,3.62-.25,19.75,19.75,0,0,0,3.09-.69,18,18,0,0,0,2.7-1.1,23.79,23.79,0,0,0,2.39-1.41,1.22,1.22,0,0,0,.53-1v-9.77a1.21,1.21,0,0,0-1.21-1.21h-7.33a1.21,1.21,0,0,0-1.21,1.21v.22a1.41,1.41,0,0,0,1.46,1.42h5.4v7.26q-.8.47-1.59.87a14.52,14.52,0,0,1-2.21.87,16.82,16.82,0,0,1-2.53.55,21.22,21.22,0,0,1-4.35.14,1.22,1.22,0,0,0-1.31,1.21v.42A1.22,1.22,0,0,0,235.39,177.7Z"/><path class="cls-1" d="M271.63,177.41h.5a1.21,1.21,0,0,0,1.22-1.21V164l10.79-16.64a1.2,1.2,0,0,0,.05-1.24,1.22,1.22,0,0,0-1.07-.64h-.42a1.56,1.56,0,0,0-1.32.73l-9.28,14.38-1.28,2.06a.67.67,0,0,0-.09.14l-.14.22a1.28,1.28,0,0,0-.18.63V176.2A1.22,1.22,0,0,0,271.63,177.41Z"/><path class="cls-1" d="M264.58,153.4a1.2,1.2,0,0,0,1.06.62,1.23,1.23,0,0,0,.59-.15l.49-.27a1.26,1.26,0,0,0,.58-.74,1.28,1.28,0,0,0-.11-.92l-3.66-6.51a1.27,1.27,0,0,0-.51-.49l-.33-.17a1.24,1.24,0,0,0-1,0,1.2,1.2,0,0,0-.69.72l-.05.12a.78.78,0,0,1-.05.14l-.06.19a1.18,1.18,0,0,0,.08,1Z"/><rect class="cls-1" x="103.35" y="165.84" width="2.9" height="11.44" rx="1.22"/><text class="cls-2" transform="translate(-1.43 -20.52)">OUTLINE<tspan class="cls-3" x="134.7" y="0"> </tspan><tspan class="cls-4" x="142.26" y="0">WHITE </tspan></text></svg>